HIERARCHY
ROOT Hips
{
	OFFSET 0.000000 83.214638 0.000000
	CHANNELS 6 Xposition Yposition Zposition Xrotation Yrotation Zrotation
	JOINT Pelvis
	{
		OFFSET 0.000000 0.000000 0.000000
		CHANNELS 3 Xrotation Yrotation Zrotation
		JOINT LeftUpLeg
		{
			OFFSET 8.479700 -4.795502 -0.379100
			CHANNELS 3 Xrotation Yrotation Zrotation
			JOINT LeftLeg
			{
				OFFSET 0.024144 -32.555107 0.112900
				CHANNELS 3 Xrotation Yrotation Zrotation
				JOINT LeftFoot
				{
					OFFSET -0.024144 -32.638630 -3.012600
					CHANNELS 3 Xrotation Yrotation Zrotation
					JOINT LeftToeBase
					{
						OFFSET 0.970200 -13.225400 11.864200
						CHANNELS 3 Xrotation Yrotation Zrotation
						End Site
						{
							OFFSET 0.000000 12.319262 0.000000
						}
					}
					JOINT LFootTongue
					{
						OFFSET 1.142400 -1.059800 6.665200
						CHANNELS 3 Xrotation Yrotation Zrotation
						End Site
						{
							OFFSET 0.000000 12.319262 0.000000
						}
					}
				}
				JOINT LeftPantLeg
				{
					OFFSET 0.918482 -16.533964 -2.284700
					CHANNELS 3 Xrotation Yrotation Zrotation
					End Site
					{
						OFFSET 0.350399 24.744368 0.000000
					}
				}
			}
		}
		JOINT RightUpLeg
		{
			OFFSET -8.479700 -4.795502 -0.379100
			CHANNELS 3 Xrotation Yrotation Zrotation
			JOINT RightLeg
			{
				OFFSET -0.023144 -32.555092 0.112900
				CHANNELS 3 Xrotation Yrotation Zrotation
				JOINT RightFoot
				{
					OFFSET 0.023144 -32.638641 -3.012700
					CHANNELS 3 Xrotation Yrotation Zrotation
					JOINT RightToeBase
					{
						OFFSET -0.970200 -13.225400 11.864200
						CHANNELS 3 Xrotation Yrotation Zrotation
						End Site
						{
							OFFSET 0.000000 12.319244 0.000000
						}
					}
					JOINT RFootTongue
					{
						OFFSET -1.142200 -1.059800 6.665200
						CHANNELS 3 Xrotation Yrotation Zrotation
						End Site
						{
							OFFSET 0.000000 12.319243 0.000000
						}
					}
				}
				JOINT RightPantLeg
				{
					OFFSET -0.919482 -16.533978 -2.284800
					CHANNELS 3 Xrotation Yrotation Zrotation
					End Site
					{
						OFFSET -0.350400 24.744419 0.000000
					}
				}
			}
		}
	}
	JOINT Spine
	{
		OFFSET 0.000000 7.722000 1.166200
		CHANNELS 3 Xrotation Yrotation Zrotation
		JOINT Spine1
		{
			OFFSET 0.000000 12.024101 0.248800
			CHANNELS 3 Xrotation Yrotation Zrotation
			JOINT Spine2
			{
				OFFSET 0.000000 11.502998 -0.491200
				CHANNELS 3 Xrotation Yrotation Zrotation
				JOINT Neck
				{
					OFFSET 0.000000 18.430702 -3.123100
					CHANNELS 3 Xrotation Yrotation Zrotation
					JOINT Head
					{
						OFFSET 0.000000 9.051102 1.034000
						CHANNELS 3 Xrotation Yrotation Zrotation
						JOINT HairB
						{
							OFFSET 0.208400 24.786102 24.822300
							CHANNELS 3 Xrotation Yrotation Zrotation
							End Site
							{
								OFFSET 0.000000 32.263779 0.000000
							}
						}
						JOINT HairA
						{
							OFFSET -7.081100 24.428299 23.196600
							CHANNELS 3 Xrotation Yrotation Zrotation
							End Site
							{
								OFFSET 0.000000 32.263779 0.000000
							}
						}
						JOINT Hat
						{
							OFFSET 16.728800 15.048294 -15.439601
							CHANNELS 3 Xrotation Yrotation Zrotation
							End Site
							{
								OFFSET 0.000000 32.263779 0.000000
							}
						}
					}
				}
				JOINT LeftShoulder
				{
					OFFSET 6.197800 13.665199 -4.064700
					CHANNELS 3 Xrotation Yrotation Zrotation
					JOINT LeftArm
					{
						OFFSET 7.778100 -0.187103 -1.709300
						CHANNELS 3 Xrotation Yrotation Zrotation
						JOINT LeftForeArm
						{
							OFFSET 22.049376 0.000000 0.000000
							CHANNELS 3 Xrotation Yrotation Zrotation
							JOINT LeftHand
							{
								OFFSET 23.009392 0.000000 0.000000
								CHANNELS 3 Xrotation Yrotation Zrotation
								JOINT LeftHandThumb1
								{
									OFFSET 3.507191 -2.063065 3.133727
									CHANNELS 3 Xrotation Yrotation Zrotation
									JOINT LeftHandThumb2
									{
										OFFSET 3.101337 -1.790558 1.790558
										CHANNELS 3 Xrotation Yrotation Zrotation
										JOINT LeftHandThumb3
										{
											OFFSET 3.058640 -1.765907 1.765906
											CHANNELS 3 Xrotation Yrotation Zrotation
											End Site
											{
												OFFSET -0.415260 3.926476 -0.049563
											}
										}
									}
								}
								JOINT LeftHandIndex1
								{
									OFFSET 11.334419 -0.901459 3.706815
									CHANNELS 3 Xrotation Yrotation Zrotation
									JOINT LeftHandIndex2
									{
										OFFSET 3.283112 0.000000 0.000000
										CHANNELS 3 Xrotation Yrotation Zrotation
										JOINT LeftHandIndex3
										{
											OFFSET 3.323853 0.000000 0.000000
											CHANNELS 3 Xrotation Yrotation Zrotation
											End Site
											{
												OFFSET -1.135597 3.097809 0.402452
											}
										}
									}
								}
								JOINT LeftHandMiddle1
								{
									OFFSET 11.335861 0.000000 0.000000
									CHANNELS 3 Xrotation Yrotation Zrotation
									JOINT LeftHandMiddle2
									{
										OFFSET 3.410492 0.000000 0.000000
										CHANNELS 3 Xrotation Yrotation Zrotation
										JOINT LeftHandMiddle3
										{
											OFFSET 3.312172 0.000000 0.000000
											CHANNELS 3 Xrotation Yrotation Zrotation
											End Site
											{
												OFFSET -1.150200 3.080154 0.400270
											}
										}
									}
								}
								JOINT LeftHandRing1
								{
									OFFSET 11.514786 -0.013176 -3.003090
									CHANNELS 3 Xrotation Yrotation Zrotation
									JOINT LeftHandRing2
									{
										OFFSET 3.053307 0.000000 0.000000
										CHANNELS 3 Xrotation Yrotation Zrotation
										JOINT LeftHandRing3
										{
											OFFSET 3.295807 0.000000 0.000000
											CHANNELS 3 Xrotation Yrotation Zrotation
											End Site
											{
												OFFSET -1.281006 3.013344 0.375733
											}
										}
									}
								}
								JOINT LeftHandPinky1
								{
									OFFSET 10.518692 -0.960396 -5.730441
									CHANNELS 3 Xrotation Yrotation Zrotation
									JOINT LeftHandPinky2
									{
										OFFSET 2.861649 0.000000 0.000000
										CHANNELS 3 Xrotation Yrotation Zrotation
										JOINT LeftHandPinky3
										{
											OFFSET 2.863380 0.000000 0.000000
											CHANNELS 3 Xrotation Yrotation Zrotation
											End Site
											{
												OFFSET -0.843597 2.711159 0.369971
											}
										}
									}
								}
							}
							JOINT LSleeve
							{
								OFFSET 6.676277 -0.344902 -1.011730
								CHANNELS 3 Xrotation Yrotation Zrotation
								End Site
								{
									OFFSET 0.000000 14.885353 0.000000
								}
							}
						}
					}
				}
				JOINT RightShoulder
				{
					OFFSET -6.197800 13.665199 -4.064700
					CHANNELS 3 Xrotation Yrotation Zrotation
					JOINT RightArm
					{
						OFFSET -7.778100 -0.187103 -1.709300
						CHANNELS 3 Xrotation Yrotation Zrotation
						JOINT RightForeArm
						{
							OFFSET -22.049376 0.000000 0.000000
							CHANNELS 3 Xrotation Yrotation Zrotation
							JOINT RightHand
							{
								OFFSET -23.009392 0.000000 0.000000
								CHANNELS 3 Xrotation Yrotation Zrotation
								JOINT RightHandThumb1
								{
									OFFSET -3.507191 -2.063065 3.133727
									CHANNELS 3 Xrotation Yrotation Zrotation
									JOINT RightHandThumb2
									{
										OFFSET -3.101337 -1.790558 1.790558
										CHANNELS 3 Xrotation Yrotation Zrotation
										JOINT RightHandThumb3
										{
											OFFSET -3.058640 -1.765907 1.765906
											CHANNELS 3 Xrotation Yrotation Zrotation
											End Site
											{
												OFFSET 0.415260 3.926476 -0.049563
											}
										}
									}
								}
								JOINT RightHandIndex1
								{
									OFFSET -11.334419 -0.901459 3.706815
									CHANNELS 3 Xrotation Yrotation Zrotation
									JOINT RightHandIndex2
									{
										OFFSET -3.283112 0.000000 0.000000
										CHANNELS 3 Xrotation Yrotation Zrotation
										JOINT RightHandIndex3
										{
											OFFSET -3.323853 0.000000 0.000000
											CHANNELS 3 Xrotation Yrotation Zrotation
											End Site
											{
												OFFSET 1.135597 3.097809 0.402452
											}
										}
									}
								}
								JOINT RightHandMiddle1
								{
									OFFSET -11.335861 0.000000 0.000000
									CHANNELS 3 Xrotation Yrotation Zrotation
									JOINT RightHandMiddle2
									{
										OFFSET -3.410492 0.000000 0.000000
										CHANNELS 3 Xrotation Yrotation Zrotation
										JOINT RightHandMiddle3
										{
											OFFSET -3.312172 0.000000 0.000000
											CHANNELS 3 Xrotation Yrotation Zrotation
											End Site
											{
												OFFSET 1.150200 3.080154 0.400270
											}
										}
									}
								}
								JOINT RightHandRing1
								{
									OFFSET -11.514786 -0.013176 -3.003090
									CHANNELS 3 Xrotation Yrotation Zrotation
									JOINT RightHandRing2
									{
										OFFSET -3.053307 0.000000 0.000000
										CHANNELS 3 Xrotation Yrotation Zrotation
										JOINT RightHandRing3
										{
											OFFSET -3.295807 0.000000 0.000000
											CHANNELS 3 Xrotation Yrotation Zrotation
											End Site
											{
												OFFSET 1.281006 3.013344 0.375733
											}
										}
									}
								}
								JOINT RightHandPinky1
								{
									OFFSET -10.518692 -0.960396 -5.730441
									CHANNELS 3 Xrotation Yrotation Zrotation
									JOINT RightHandPinky2
									{
										OFFSET -2.861649 0.000000 0.000000
										CHANNELS 3 Xrotation Yrotation Zrotation
										JOINT RightHandPinky3
										{
											OFFSET -2.863380 0.000000 0.000000
											CHANNELS 3 Xrotation Yrotation Zrotation
											End Site
											{
												OFFSET 0.843597 2.711159 0.369971
											}
										}
									}
								}
							}
							JOINT RSleeve
							{
								OFFSET -6.676277 -0.344902 -1.011730
								CHANNELS 3 Xrotation Yrotation Zrotation
								End Site
								{
									OFFSET 0.000000 14.885353 0.000000
								}
							}
						}
					}
				}
				JOINT Backpack
				{
					OFFSET 0.000000 -2.471497 36.677502
					CHANNELS 3 Xrotation Yrotation Zrotation
					End Site
					{
						OFFSET 0.000000 20.427315 0.000000
					}
				}
				JOINT Hood
				{
					OFFSET 0.000000 18.754097 -10.431000
					CHANNELS 3 Xrotation Yrotation Zrotation
					JOINT Hood1
					{
						OFFSET 0.000000 -5.011002 -7.685901
						CHANNELS 3 Xrotation Yrotation Zrotation
						End Site
						{
							OFFSET 0.000000 9.175140 0.000000
						}
					}
				}
				JOINT LHoodieString
				{
					OFFSET 5.250500 16.397697 3.089900
					CHANNELS 3 Xrotation Yrotation Zrotation
					JOINT LHoodieString1
					{
						OFFSET 0.257700 -6.364304 3.694600
						CHANNELS 3 Xrotation Yrotation Zrotation
						JOINT LHoodieString2
						{
							OFFSET 0.000000 -9.643799 2.679100
							CHANNELS 3 Xrotation Yrotation Zrotation
							End Site
							{
								OFFSET 0.000000 10.009018 0.000000
							}
						}
					}
				}
				JOINT RHoodieString
				{
					OFFSET -5.250500 16.397697 3.089900
					CHANNELS 3 Xrotation Yrotation Zrotation
					JOINT RHoodieString1
					{
						OFFSET -0.257700 -6.364304 3.694600
						CHANNELS 3 Xrotation Yrotation Zrotation
						JOINT RHoodieString2
						{
							OFFSET 0.000000 -9.643799 2.679100
							CHANNELS 3 Xrotation Yrotation Zrotation
							End Site
							{
								OFFSET 0.000000 10.009018 0.000000
							}
						}
					}
				}
			}
			JOINT LBackpack_Strap
			{
				OFFSET 15.223200 -7.719803 -6.610900
				CHANNELS 3 Xrotation Yrotation Zrotation
				End Site
				{
					OFFSET 0.000000 16.040596 0.000000
				}
			}
			JOINT RBackpack_Strap
			{
				OFFSET -15.223000 -7.719803 -6.610900
				CHANNELS 3 Xrotation Yrotation Zrotation
				End Site
				{
					OFFSET 0.000000 16.040596 0.000000
				}
			}
		}
	}
	JOINT BoyFacialAnim_Joint
	{
		OFFSET 1.000000 -82.208099 -1.550900
		CHANNELS 3 Xrotation Yrotation Zrotation
		End Site
		{
			OFFSET 0.000000 30.012791 0.000000
		}
	}
}
MOTION
Frames: 4
Frame Time: 0.016667
-1.505060 75.384773 0.158178 51.457651 -70.871689 52.598044 -0.000001 -0.000001 0.000000 -52.161168 2.217459 -2.607384 45.076892 -9.756084 1.524991 -9.490986 -0.451956 0.136871 -0.000000 0.000000 -0.000000 -0.000000 0.000000 -0.000000 0.000000 0.000000 -0.000000 -45.792290 -4.104851 -18.290270 46.126743 -5.251715 -2.270146 -13.373236 -2.408132 14.495540 0.000000 0.000000 -0.000000 0.000000 0.000000 -0.000000 -0.000000 -0.000000 -0.000001 7.794653 3.291910 4.343489 12.707910 6.406373 6.655403 12.728338 6.436537 6.586117 3.385421 -0.460127 2.258547 8.874433 1.648279 -4.487667 -0.000001 -0.000002 -0.000001 -0.000001 -0.000002 -0.000001 -0.000001 -0.000002 -0.000001 0.608296 -2.105599 -11.581381 -46.459172 -29.078813 -92.550702 -0.000002 -20.858993 -0.000006 -20.416221 18.957776 30.637944 55.682680 -2.117571 45.305546 81.950365 -1.423349 50.782467 0.000001 0.000001 -0.000000 0.230317 3.926604 -22.478593 5.723166 5.849681 -88.745324 0.000001 -0.000001 -0.000000 6.341376 9.458924 -58.484294 6.990982 5.739319 -101.253333 -0.000001 0.000000 0.000004 7.415900 8.807722 -74.918023 5.953050 5.850187 -91.000441 -0.000003 0.000000 -0.000002 20.711398 9.388301 -85.840718 5.062062 5.797834 -82.236632 -0.000002 0.000001 0.000005 0.000001 -0.000001 0.000001 -0.784360 15.466922 22.252685 -56.162870 25.008340 77.070939 0.000001 0.015615 -0.000004 -12.877762 -7.607186 2.872480 -0.787145 13.150267 -22.268090 11.690835 -49.505631 19.340364 -0.000002 -0.000008 0.000004 -2.857596 -16.672246 -11.849139 4.400816 -4.650134 86.841013 -0.000000 0.000005 0.000003 6.189286 -11.029378 41.067120 5.549112 -4.571158 101.053236 0.000003 0.000000 0.000002 -0.865228 -4.640765 62.576335 4.860681 -4.652747 92.507529 -0.000001 -0.000000 0.000000 -13.667282 -1.460356 72.993166 3.233225 -4.434622 72.178161 -0.000000 -0.000000 -0.000002 -0.000001 0.000000 -0.000001 -0.000001 -0.000001 0.000000 -0.000001 -0.000001 0.000000 -0.000001 -0.000001 0.000000 -0.000001 -0.000001 0.000000 -0.000001 -0.000001 0.000001 0.000001 0.000001 -0.000000 -0.000001 -0.000001 0.000000 -0.000001 -0.000001 0.000001 0.000001 0.000001 -0.000000 -0.000001 -0.000002 -0.000001 -0.000001 -0.000002 -0.000001 -0.000001 -0.000001 0.000000 
-1.510698 75.396408 0.205776 51.377018 -70.855214 52.503049 -0.000001 -0.000001 0.000000 -52.124660 2.208622 -2.648008 45.046488 -9.723061 1.523765 -9.483733 -0.460030 0.178037 0.000000 0.000000 0.000000 0.000000 0.000000 0.000000 0.000001 -0.000000 -0.000000 -45.724917 -4.118288 -18.336336 46.045430 -5.214666 -2.242498 -13.339306 -2.447826 14.514953 -0.000000 0.000000 -0.000000 -0.000000 0.000000 -0.000000 -0.000000 -0.000000 -0.000001 7.795712 3.286182 4.330970 12.722935 6.393031 6.642684 12.744205 6.422145 6.572914 3.354593 -0.453952 2.186412 8.724218 1.871172 -4.553506 0.000000 0.000000 0.000001 0.000000 0.000000 0.000001 0.000000 0.000000 0.000001 0.608189 -2.112957 -11.540764 -46.406351 -29.046295 -92.578139 -0.000005 -20.879922 -0.000016 -20.407347 18.976275 30.509362 55.367521 -2.060143 45.240916 83.883274 -1.387149 51.818507 -0.000001 0.000004 0.000001 0.241762 3.953157 -22.443464 5.716018 5.849520 -88.675117 0.000000 -0.000000 -0.000005 6.324662 9.455590 -58.401683 6.990982 5.739326 -101.253333 0.000000 0.000000 0.000000 7.408072 8.809511 -74.848464 5.949528 5.850239 -90.966003 0.000001 0.000001 -0.000004 20.660077 9.414972 -85.725288 5.052653 5.796532 -82.143373 -0.000000 0.000001 0.000002 0.000001 0.000001 0.000001 -0.774895 15.458359 22.231164 -54.597315 24.896588 76.442910 -0.000011 2.873084 0.000010 -12.870074 -9.290291 2.437190 -0.798237 13.174579 -22.271968 11.757523 -49.535882 19.412188 0.000000 0.000000 -0.000000 -2.848290 -16.689897 -11.803240 4.402692 -4.650239 86.864147 -0.000001 -0.000001 0.000002 6.207307 -11.051168 41.060912 5.549096 -4.571154 101.053257 -0.000001 -0.000000 0.000002 -0.875331 -4.637303 62.599415 4.858817 -4.652826 92.484299 -0.000002 0.000000 0.000002 -13.666216 -1.439296 72.929714 3.229972 -4.433567 72.135943 0.000001 -0.000000 0.000000 -0.000001 -0.000001 -0.000005 -0.000004 0.000002 0.000001 -0.000004 0.000002 0.000001 -0.000004 0.000002 0.000001 -0.000004 0.000002 0.000001 -0.000004 0.000002 0.000001 -0.000002 0.000000 -0.000000 -0.000004 0.000002 0.000001 -0.000004 0.000002 0.000001 -0.000002 0.000000 -0.000000 -0.000002 -0.000002 -0.000000 -0.000002 -0.000002 -0.000000 -0.000001 -0.000001 0.000000 
-1.512392 75.406441 0.254691 51.310615 -70.833173 52.425909 -0.000000 -0.000001 0.000000 -52.102500 2.177887 -2.691786 45.005582 -9.612081 1.507713 -9.447886 -0.463614 0.191748 0.000000 -0.000000 -0.000000 0.000000 -0.000000 0.000000 -0.000000 0.000000 -0.000000 -45.672860 -4.128462 -18.386878 45.968071 -5.191829 -2.219009 -13.302325 -2.471913 14.540995 -0.000000 0.000000 0.000000 -0.000000 0.000000 0.000000 -0.000004 0.000000 -0.000000 7.797050 3.275606 4.321322 12.734702 6.382447 6.620569 12.753691 6.413122 6.553445 3.323827 -0.449308 2.118603 8.568382 2.100366 -4.603543 -0.000000 -0.000003 -0.000001 -0.000000 -0.000003 -0.000001 -0.000000 -0.000003 -0.000001 0.607740 -2.121762 -11.501767 -46.348779 -29.026183 -92.588719 -0.000002 -20.910896 0.000000 -20.414901 18.980117 30.448184 55.053435 -2.001832 45.179820 85.655340 -1.068803 52.951622 0.000001 0.000001 0.000001 0.253188 3.979763 -22.408328 5.708874 5.849353 -88.604950 -0.000001 0.000000 -0.000007 6.307994 9.452202 -58.319106 6.990971 5.739336 -101.253333 -0.000001 0.000001 0.000002 7.400237 8.811289 -74.778946 5.946041 5.850290 -90.931654 -0.000001 0.000001 -0.000004 20.608658 9.441455 -85.609857 5.043232 5.795223 -82.050127 0.000001 0.000000 0.000001 0.000001 0.000000 0.000000 -0.771680 15.442474 22.219748 -54.175558 25.033933 76.267757 -0.000017 3.450914 0.000012 -13.186364 -9.532934 2.438381 -0.811492 13.198140 -22.276925 11.835228 -49.570156 19.494991 -0.000000 -0.000000 0.000000 -2.834082 -16.711504 -11.736785 4.407208 -4.650484 86.920038 -0.000000 0.000002 0.000002 6.223055 -11.065516 41.078919 5.549088 -4.571146 101.053257 0.000002 -0.000000 0.000002 -0.885591 -4.633927 62.624645 4.855899 -4.652944 92.448571 0.000001 -0.000001 0.000002 -13.660880 -1.426069 72.885317 3.226707 -4.432528 72.093746 -0.000001 -0.000001 -0.000000 0.000000 -0.000000 -0.000004 0.000001 0.000000 0.000000 0.000001 0.000000 0.000000 0.000001 0.000000 0.000000 0.000001 0.000000 0.000000 0.000001 0.000000 0.000001 0.000003 -0.000000 0.000000 0.000001 0.000000 0.000000 0.000001 0.000000 0.000001 0.000003 -0.000000 0.000000 0.000002 -0.000001 -0.000000 0.000002 -0.000001 -0.000000 -0.000000 -0.000001 0.000000 
-1.511980 75.415497 0.304639 51.249628 -70.808148 52.355722 0.000002 0.000001 -0.000000 -52.085534 2.187792 -2.741254 44.988533 -9.628823 1.512005 -9.453702 -0.472338 0.238081 -0.000000 -0.000000 0.000000 -0.000000 -0.000000 0.000000 0.000001 0.000000 -0.000000 -45.623772 -4.125585 -18.438606 45.893776 -5.161165 -2.189057 -13.263776 -2.512155 14.564922 -0.000000 0.000000 0.000000 -0.000000 0.000000 0.000000 -0.000001 -0.000000 0.000000 7.798154 3.270163 4.307206 12.748114 6.372647 6.603425 12.767409 6.402605 6.536469 3.292755 -0.439157 2.047261 8.416541 2.324651 -4.644370 0.000001 -0.000002 -0.000002 0.000001 -0.000002 -0.000002 0.000001 -0.000002 -0.000002 0.605205 -2.134129 -11.471709 -46.290408 -29.015337 -92.588521 -0.000008 -20.949843 0.000000 -20.434119 18.977749 30.419248 54.740374 -1.942656 45.122214 87.181047 -0.340616 54.208435 0.000000 0.000002 -0.000000 0.264603 4.006411 -22.373270 5.701713 5.849167 -88.534736 -0.000000 0.000001 -0.000005 6.291361 9.448827 -58.236522 6.990987 5.739330 -101.253340 0.000000 0.000001 -0.000003 7.392401 8.813056 -74.709401 5.942527 5.850360 -90.897237 -0.000001 0.000000 -0.000000 20.557124 9.467764 -85.494400 5.033820 5.793918 -81.956902 -0.000001 0.000001 -0.000000 0.000001 0.000001 0.000000 -0.765687 15.424795 22.200341 -53.294737 25.069699 75.930803 0.000001 4.975368 -0.000004 -13.266099 -10.397370 2.181854 -0.824683 13.208695 -22.283770 11.930311 -49.611680 19.594110 -0.000002 -0.000002 0.000001 -2.809460 -16.735773 -11.630358 4.407973 -4.650525 86.929402 0.000001 0.000002 0.000000 6.238547 -11.074703 41.121168 5.549104 -4.571160 101.053243 0.000006 0.000000 0.000002 -0.896617 -4.631391 62.666125 4.854692 -4.653007 92.433394 -0.000002 -0.000000 0.000000 -13.676212 -1.418066 72.876602 3.223431 -4.431477 72.051529 -0.000000 -0.000001 0.000000 -0.000003 0.000001 -0.000000 -0.000001 -0.000000 0.000001 -0.000001 -0.000000 0.000001 -0.000001 -0.000000 0.000001 -0.000001 -0.000000 0.000001 -0.000001 -0.000000 -0.000000 -0.000001 0.000000 -0.000000 -0.000001 -0.000000 0.000001 -0.000001 -0.000000 -0.000000 -0.000001 0.000000 -0.000000 0.000002 -0.000001 -0.000001 0.000002 -0.000001 -0.000001 0.000002 0.000001 -0.000000 
